<svg xmlns="http://www.w3.org/2000/svg" width="600.024" height="139.245" viewBox="0 0 1840 427">
  <defs>
    <style>
      .cls-1 {
        fill: #1d2951;
      }

      .cls-1, .cls-3, .cls-4 {
        fill-rule: evenodd;
      }

      .cls-2, .cls-4 {
        fill: #38b6ff;
      }

      .cls-3 {
        fill: #616985;
      }
    </style>
  </defs>
  <path id="Kleurenvulling_1" data-name="Kleurenvulling 1" class="cls-1" d="M0,1.156H111L173,311,248,1.156H362L434,311,496,1.156H607L597,42s-64.063-16.8-94,33-5.414,90.743-4,92,15.99,31.906,53.3,40.819c0.235,0.056.85-.013,0.7,0.181-1.544,2.057-.1,3.565-2,8-2.895,6.76-5.645,19.148-9,32-4.84,18.541-9.965,41.568-16,65-14.426,56.016-29,114-29,114H371L304,147,234,427H108Z"/>
  <circle id="Cirkel_W_" data-name="Cirkel (W)" class="cls-2" cx="574" cy="124" r="75"/>
  <path id="Web_Spire" data-name="Web Spire" class="cls-1" d="M778.978,159.969h41.4l23.2-92.4,22.4,92.4h41.4l36.6-140.4h-36.8l-20.4,102.2-24-102.2h-37.6l-25,102.2-20.2-102.2h-36.6Zm231.392-85.8c11.4,0,21,7,21,19.2H988.575C990.575,80.97,999.175,74.17,1010.37,74.17Zm53.4,48.8h-36.4c-2.8,6-8.2,10.8-17.8,10.8-11,0-20-6.8-21.2-21.4h77.395a86.42,86.42,0,0,0,.6-10c0-34-23-55.6-55.6-55.6-33.195,0-56.394,22-56.394,57.4s23.6,57.4,56.394,57.4C1038.57,161.569,1058.37,144.769,1063.77,122.969Zm54.8-58.8v-52.2h-34.19v148h34.19v-15.6c6.2,9.8,18,17.2,34.4,17.2,27.4,0,49.2-22.4,49.2-57.6s-21.6-57.2-49.2-57.2C1136.97,46.77,1124.77,54.17,1118.57,64.17Zm48.8,39.8c0,17.8-11.6,27.8-24.6,27.8-12.8,0-24.4-9.8-24.4-27.6s11.6-27.6,24.4-27.6C1155.77,76.57,1167.37,86.17,1167.37,103.969Zm197.2,14.2c0-47-69.4-36-69.4-60.4,0-8.8,6.2-13,14.4-12.8,9.2,0.2,15.6,5.6,16.2,14.6h37c-1.4-26.8-22-42-52.6-42-29.4,0-51.2,14.8-51.2,41.4-0.4,49.8,69.8,35.8,69.8,61.8,0,8.2-6.4,13.2-16.4,13.2-9.6,0-16.4-5.2-17.4-16h-36.4c1,28.4,24.6,43.4,54.8,43.4C1346.17,161.369,1364.57,141.769,1364.57,118.169Zm55.2-54V48.37h-34.2v164.8h34.2v-68.8c6.2,9.4,18,17.2,34.4,17.2,27.4,0,49.2-22.4,49.2-57.6s-21.8-57.2-49.2-57.2C1437.77,46.77,1425.97,54.37,1419.77,64.17Zm48.8,39.8c0,17.8-11.6,27.8-24.6,27.8-12.8,0-24.4-9.8-24.4-27.6s11.6-27.6,24.4-27.6C1456.97,76.57,1468.57,86.17,1468.57,103.969Zm52.8,56h34.2V48.37h-34.2v111.6Zm17.2-123.2c12,0,20.19-8.2,20.19-18.4,0-10.4-8.19-18.6-20.19-18.6-12.2,0-20.4,8.2-20.4,18.6C1518.17,28.571,1526.37,36.771,1538.57,36.771Zm75.99,71.4c0-19.2,9.4-24.8,25.6-24.8h9.4V47.17c-15,0-27.2,8-35,19.8V48.37h-34.19v111.6h34.19v-51.8Zm100.6-34c11.4,0,21,7,21,19.2h-42.8C1695.36,80.97,1703.96,74.17,1715.16,74.17Zm53.4,48.8h-36.4c-2.8,6-8.2,10.8-17.8,10.8-11,0-20-6.8-21.2-21.4h77.4a86.42,86.42,0,0,0,.6-10c0-34-23-55.6-55.6-55.6-33.2,0-56.4,22-56.4,57.4s23.6,57.4,56.4,57.4C1743.36,161.569,1763.16,144.769,1768.56,122.969Z"/>
  <path id="Web_Agency" data-name="Web Agency" class="cls-3" d="M755.433,306.115h20.7l11.6-46.2,11.2,46.2h20.7l18.3-70.2h-18.4l-10.2,51.1-12-51.1h-18.8l-12.5,51.1-10.1-51.1h-18.3Zm115.7-42.9c5.7,0,10.5,3.5,10.5,9.6h-21.4C861.232,266.613,865.532,263.212,871.133,263.212Zm26.7,24.4h-18.2c-1.4,3-4.1,5.4-8.9,5.4-5.5,0-10-3.4-10.6-10.7h38.7a43.242,43.242,0,0,0,.3-5c0-17-11.5-27.8-27.8-27.8-16.6,0-28.2,11-28.2,28.7s11.8,28.7,28.2,28.7C885.234,306.915,895.134,298.515,897.834,287.614Zm27.4-29.4v-26.1h-17.1v74h17.1v-7.8c3.1,4.9,9,8.6,17.2,8.6,13.7,0,24.6-11.2,24.6-28.8s-10.8-28.6-24.6-28.6C934.433,249.512,928.332,253.212,925.232,258.212Zm24.4,19.9c0,8.9-5.8,13.9-12.3,13.9-6.4,0-12.2-4.9-12.2-13.8s5.8-13.8,12.2-13.8C943.833,264.412,949.634,269.213,949.634,278.113Zm95.5,28h18.1l-25.4-70.2h-19.8l-25.4,70.2h17.9l4.2-12.4h26.2Zm-8.6-25.6h-17.3l8.6-25.7Zm31-2.4c0,17.6,10.9,28.8,24.6,28.8,8.2,0,14.1-3.9,17.2-8.8v7.9c0,9.4-5.1,12.8-11.6,12.8-5.9,0-10.1-2.7-11.2-6.9h-16.9c1.5,13.3,12.3,21.7,28.9,21.7,19.3,0,27.9-12.7,27.9-27.6v-55.7h-17.1v7.9c-3-5-9-8.7-17.2-8.7C1078.43,249.512,1067.53,260.512,1067.53,278.113Zm41.8,0.1c0,8.9-5.7,13.8-12.2,13.8-6.4,0-12.2-5-12.2-13.9s5.8-13.7,12.2-13.7C1103.63,264.412,1109.33,269.313,1109.33,278.213Zm54.1-15c5.7,0,10.5,3.5,10.5,9.6h-21.4C1153.53,266.613,1157.83,263.212,1163.43,263.212Zm26.7,24.4h-18.2c-1.4,3-4.1,5.4-8.9,5.4-5.5,0-10-3.4-10.6-10.7h38.7a43.242,43.242,0,0,0,.3-5c0-17-11.5-27.8-27.8-27.8-16.6,0-28.2,11-28.2,28.7s11.8,28.7,28.2,28.7C1177.53,306.915,1187.43,298.515,1190.13,287.614Zm48.8,18.5h17v-32.6c0-15-8.6-23.8-21.5-23.8-7.5,0-13.5,3.3-16.9,8v-7.4h-17.1v55.8h17.1v-30.3c0-7.6,4.2-11.8,10.7-11.8s10.7,4.2,10.7,11.8v30.3Zm25.5-27.9c0,17.7,11.6,28.7,28,28.7,14,0,23.9-8.1,26.8-21h-18.2c-1.5,4.1-4.2,6.4-8.9,6.4-6.1,0-10.3-4.8-10.3-14.1s4.2-14.1,10.3-14.1c4.7,0,7.5,2.5,8.9,6.4h18.2c-2.9-13.3-12.8-21-26.8-21C1276.03,249.512,1264.43,260.612,1264.43,278.213Zm89.6,7-12.9-34.9h-19.1l22.7,53.9-12.8,28.4h18.4l35-82.3h-18.5Z"/>
  <circle id="Punt_in_tekst" data-name="Punt in tekst" class="cls-2" cx="1809.5" cy="132.5" r="27.5"/>
  <path id="Lijn" class="cls-4" d="M739,427V417H1840v10H739Z"/>
</svg>
