<?xml version="1.0" standalone="no"?>
<!DOCTYPE svg PUBLIC "-//W3C//DTD SVG 20010904//EN"
 "http://www.w3.org/TR/2001/REC-SVG-20010904/DTD/svg10.dtd">
<svg version="1.0" xmlns="http://www.w3.org/2000/svg"
 width="1294.000000pt" height="1294.000000pt" viewBox="0 0 1294.000000 1294.000000"
 preserveAspectRatio="xMidYMid meet">
<metadata>
Created by potrace 1.11, written by Peter Selinger 2001-2013
</metadata>
<g transform="translate(0.000000,1294.000000) scale(0.100000,-0.100000)"
fill="#000000" stroke="none">
<path d="M4910 10668 c-8 -13 -15 -30 -16 -38 -2 -17 -6 -34 -30 -135 -9 -38
-19 -77 -22 -85 -3 -8 -7 -23 -8 -33 -2 -10 -18 -75 -35 -144 -17 -70 -32
-134 -34 -142 -2 -9 -29 -119 -59 -245 -31 -125 -58 -238 -60 -250 -2 -11 -7
-28 -10 -36 -3 -8 -7 -26 -10 -40 -2 -14 -14 -63 -26 -110 -12 -47 -24 -96
-27 -110 -2 -14 -16 -70 -29 -125 -14 -55 -27 -107 -29 -115 -2 -8 -18 -73
-35 -145 -18 -71 -34 -143 -37 -160 -3 -16 -9 -38 -14 -47 -5 -10 -8 -18 -5
-18 3 0 -1 -20 -8 -45 -8 -25 -12 -45 -10 -45 2 0 -1 -11 -6 -25 -5 -14 -12
-37 -15 -50 -5 -23 -12 -59 -20 -95 -2 -8 -4 -15 -5 -15 -1 0 -3 -7 -5 -15 -2
-8 -18 -76 -35 -150 -18 -74 -33 -142 -35 -150 -2 -8 -4 -15 -5 -15 -2 0 -5
-16 -13 -57 -3 -15 -8 -32 -11 -37 -4 -5 -8 -22 -10 -38 -7 -40 -35 -165 -42
-183 -3 -8 -8 -26 -10 -40 -3 -14 -12 -52 -21 -85 -8 -33 -17 -68 -19 -78 -2
-10 -6 -27 -9 -37 -6 -19 -11 -42 -21 -94 -2 -16 -7 -32 -9 -36 -2 -3 -6 -17
-9 -31 -6 -30 -10 -47 -31 -129 -21 -86 -24 -100 -30 -130 -3 -14 -10 -41 -15
-60 -6 -19 -13 -44 -15 -55 -2 -11 -6 -31 -9 -45 -9 -45 -58 -244 -73 -300 -9
-30 -17 -64 -19 -75 -1 -11 -7 -38 -13 -60 -5 -22 -17 -69 -26 -105 -9 -36
-19 -76 -21 -90 -3 -14 -11 -46 -19 -73 -8 -26 -14 -49 -15 -52 0 -3 0 -6 -1
-7 0 -2 -2 -12 -4 -23 -2 -11 -6 -29 -8 -40 -14 -52 -68 -282 -70 -295 -2 -8
-5 -19 -9 -25 -3 -5 -9 -26 -12 -45 -3 -19 -12 -58 -20 -87 -8 -28 -11 -54 -8
-57 3 -3 1 -6 -4 -6 -5 0 -10 -10 -11 -23 -1 -12 -4 -29 -6 -37 -2 -8 -7 -26
-10 -40 -4 -14 -23 -92 -42 -175 -20 -82 -66 -271 -101 -420 -36 -148 -66
-274 -68 -280 -3 -19 -16 -33 -34 -37 -15 -4 -19 2 -21 36 -1 22 -6 45 -11 52
-6 6 -8 13 -5 15 2 3 -1 25 -6 49 -6 25 -13 56 -15 70 -11 69 -15 87 -20 110
-3 14 -7 36 -10 50 -2 14 -12 61 -21 105 -9 44 -17 94 -17 110 -1 17 -4 32 -7
35 -6 4 -24 91 -34 160 -2 14 -7 39 -10 55 -4 17 -9 39 -11 50 -4 24 -21 108
-29 150 -14 67 -36 182 -41 205 -2 14 -9 48 -14 75 -5 28 -12 64 -15 80 -3 17
-7 39 -9 50 -2 11 -6 31 -10 45 -3 14 -8 38 -10 54 -6 32 -25 128 -33 166 -4
14 -7 34 -8 45 -2 11 -6 34 -10 50 -3 17 -8 39 -10 50 -2 11 -10 54 -19 95 -9
41 -18 91 -20 110 -3 19 -5 35 -6 35 -1 0 -3 7 -5 15 -5 26 -26 134 -31 160
-2 14 -9 45 -14 70 -5 25 -12 59 -15 75 -5 31 -7 44 -25 130 -5 28 -12 61 -14
75 -3 14 -5 25 -6 25 -1 0 -3 16 -6 35 -2 19 -9 55 -14 80 -6 25 -12 56 -14
70 -2 14 -6 32 -9 40 -2 8 -13 58 -22 110 -9 52 -19 104 -22 115 -2 11 -6 29
-7 40 -2 11 -4 20 -5 20 -1 0 -4 14 -6 30 -2 17 -17 100 -34 185 -18 85 -34
166 -36 180 -2 14 -9 50 -15 80 -6 30 -13 66 -16 80 -2 14 -9 45 -14 70 -5 25
-12 59 -14 75 -2 17 -5 30 -6 30 -1 0 -3 11 -6 25 -2 14 -8 45 -14 70 -5 25
-19 95 -30 155 -11 61 -22 121 -25 135 -3 14 -8 36 -10 50 -6 33 -14 76 -26
128 -5 24 -7 47 -4 52 3 5 1 11 -5 15 -5 3 -10 21 -10 40 0 19 -5 37 -10 40
-6 4 -8 10 -6 13 4 7 -4 58 -19 122 -8 33 -13 58 -19 100 -3 19 -10 55 -16 80
-17 78 -22 104 -23 133 -1 15 -4 27 -7 27 -3 0 -6 8 -6 18 -1 9 -9 55 -18 102
-10 47 -19 94 -21 105 -8 49 -16 91 -21 108 -3 11 -8 29 -9 40 -6 35 -14 80
-19 107 -12 53 -16 76 -21 110 -3 19 -9 44 -12 55 -3 11 -7 31 -9 45 -1 14 -3
26 -4 28 -3 3 -5 9 -15 67 -4 28 -9 55 -11 60 -1 6 -5 28 -9 50 -3 22 -8 48
-11 58 -5 16 -67 17 -1115 17 -1053 0 -1110 -1 -1105 -17 3 -10 37 -146 76
-303 39 -157 74 -292 77 -300 3 -8 6 -18 5 -21 -1 -4 10 -49 24 -100 14 -52
27 -103 30 -114 3 -17 14 -65 19 -85 1 -3 6 -23 13 -45 6 -22 13 -51 16 -65
10 -52 15 -70 20 -78 3 -5 8 -22 10 -38 3 -16 8 -40 11 -54 3 -14 8 -36 11
-49 3 -14 7 -28 10 -33 3 -4 7 -16 9 -25 2 -10 8 -38 14 -63 7 -25 14 -56 17
-70 2 -14 8 -34 11 -45 4 -11 8 -24 9 -30 2 -8 34 -137 80 -317 5 -22 14 -58
19 -78 2 -8 4 -15 5 -15 1 0 3 -9 4 -20 2 -11 11 -49 21 -85 9 -36 18 -72 20
-80 2 -8 13 -51 24 -95 12 -44 23 -89 25 -100 4 -22 42 -173 56 -220 9 -31 60
-238 73 -300 2 -5 6 -16 10 -22 5 -7 6 -13 4 -13 -3 0 4 -33 14 -72 27 -100
29 -110 35 -138 3 -14 10 -43 16 -65 7 -22 13 -47 14 -55 1 -8 19 -78 39 -155
20 -77 39 -151 41 -165 3 -14 9 -39 15 -56 5 -17 12 -41 14 -53 6 -26 9 -38
30 -121 8 -36 17 -72 19 -80 2 -8 11 -42 19 -75 9 -33 18 -71 21 -85 3 -14 15
-61 27 -105 11 -44 22 -87 24 -95 9 -41 58 -237 62 -250 3 -8 8 -24 10 -34 2
-10 17 -72 34 -137 16 -65 32 -126 34 -136 19 -83 38 -161 43 -173 3 -8 6 -21
8 -29 1 -7 8 -36 15 -65 7 -28 14 -54 15 -58 1 -5 2 -9 3 -10 2 -2 5 -14 7
-28 3 -14 18 -75 34 -136 16 -61 31 -122 34 -135 3 -13 10 -42 16 -64 6 -22
13 -51 16 -65 3 -14 8 -34 11 -45 8 -23 10 -31 17 -63 3 -13 7 -31 10 -40 3
-9 7 -28 10 -42 3 -14 15 -61 26 -105 11 -44 23 -91 26 -103 2 -13 12 -49 20
-80 9 -32 19 -73 24 -92 4 -19 13 -55 20 -80 6 -25 14 -52 15 -60 2 -8 15 -62
30 -120 15 -58 31 -121 35 -140 9 -35 38 -154 60 -240 7 -25 13 -52 15 -60 2
-8 8 -30 14 -47 5 -18 8 -33 6 -33 -2 0 2 -18 10 -41 8 -23 12 -45 9 -50 -3
-5 -1 -9 4 -9 5 0 9 -6 10 -12 0 -7 3 -24 6 -38 3 -14 8 -34 10 -45 3 -11 9
-35 15 -53 5 -18 10 -35 10 -37 1 -3 1 -6 2 -7 1 -5 10 -43 14 -63 2 -11 9
-38 15 -60 6 -22 13 -49 15 -60 5 -24 10 -45 29 -112 8 -29 12 -53 10 -53 -3
0 0 -8 5 -19 6 -10 13 -32 15 -48 3 -16 20 -83 37 -149 17 -65 32 -126 34
-134 2 -8 15 -61 29 -116 14 -56 27 -110 29 -120 2 -11 7 -26 10 -34 3 -8 15
-55 27 -105 11 -49 25 -107 31 -127 l10 -38 1269 0 1269 0 12 42 c6 24 12 50
14 58 7 35 127 516 132 530 4 8 6 18 5 22 -1 3 6 30 14 60 9 29 18 62 20 73
10 53 14 71 28 119 8 28 17 62 20 76 3 14 15 61 26 105 25 94 29 111 35 147 3
15 10 39 15 53 9 24 19 66 25 105 1 8 8 35 15 60 14 47 15 50 24 90 3 14 12
54 21 90 9 36 18 73 20 83 2 10 7 27 10 37 3 10 8 27 10 37 2 10 12 47 20 83
9 36 18 72 20 80 2 8 11 44 20 80 9 36 18 72 20 80 2 8 10 42 19 76 8 33 17
69 19 80 2 10 7 26 10 34 5 14 35 135 42 173 3 10 7 27 10 37 3 10 7 27 9 37
2 10 10 38 17 63 7 25 13 50 14 55 5 38 19 92 28 103 5 6 7 12 4 12 -3 0 -1
15 4 33 5 17 12 43 14 57 3 14 30 124 60 245 31 121 58 231 61 245 2 14 9 37
15 52 6 15 8 32 4 37 -3 6 -2 11 3 11 5 0 9 6 9 13 0 13 31 140 41 167 3 8 5
18 4 21 -1 4 8 40 19 80 12 41 23 83 25 94 7 37 13 59 28 117 8 31 18 67 20
80 5 21 32 133 42 168 7 30 85 335 89 355 3 11 7 29 9 40 14 64 57 234 65 260
6 17 12 41 15 55 2 14 21 90 41 170 37 146 41 163 50 201 2 11 6 28 9 37 3 9
10 36 16 60 15 59 31 54 44 -15 2 -10 12 -47 21 -83 9 -36 18 -74 20 -85 2
-11 10 -45 18 -75 8 -30 18 -68 21 -85 3 -16 15 -68 26 -115 12 -47 23 -92 25
-100 2 -8 22 -89 45 -180 23 -91 43 -172 44 -180 1 -8 6 -28 10 -45 20 -81 27
-112 31 -132 7 -30 10 -44 35 -138 11 -44 23 -90 25 -102 3 -13 7 -33 10 -45
2 -13 27 -114 55 -226 27 -112 52 -213 54 -225 3 -12 12 -47 20 -78 8 -30 17
-66 19 -80 2 -13 7 -31 10 -39 5 -14 24 -94 32 -136 2 -11 4 -20 5 -21 3 -3 3
-3 15 -58 4 -22 10 -46 12 -53 1 -6 5 -18 6 -25 2 -6 7 -25 11 -42 4 -16 11
-46 17 -65 5 -19 11 -46 13 -60 2 -14 9 -45 16 -70 7 -25 13 -52 15 -60 2 -8
15 -60 28 -114 14 -55 24 -103 21 -108 -3 -4 -1 -8 3 -8 5 0 9 -8 10 -17 1
-10 23 -103 48 -207 26 -105 48 -197 50 -205 2 -9 13 -54 25 -101 12 -47 23
-92 25 -100 3 -14 21 -93 31 -135 3 -11 6 -24 8 -30 2 -5 6 -23 10 -40 4 -16
12 -48 17 -70 6 -22 12 -49 14 -60 2 -11 4 -20 5 -20 1 0 3 -10 6 -22 2 -12
22 -94 44 -183 22 -90 40 -171 40 -181 0 -11 5 -19 11 -19 5 0 8 -3 5 -8 -2
-4 9 -61 25 -127 17 -66 32 -131 35 -145 2 -14 7 -32 10 -40 3 -8 8 -28 10
-45 3 -16 9 -41 14 -55 4 -14 18 -66 29 -116 12 -51 24 -102 27 -115 12 -53
23 -97 39 -159 9 -36 18 -69 19 -75 1 -5 15 -65 31 -133 l28 -122 1270 2 1269
3 20 70 c10 39 20 79 23 90 2 11 13 56 25 100 12 44 24 87 26 95 2 8 10 40 18
70 54 203 68 257 71 270 2 8 4 15 5 15 1 0 3 7 5 15 2 12 28 108 60 230 3 8
16 58 29 110 14 52 39 147 56 210 17 63 33 122 34 130 2 8 9 35 16 60 7 25 14
52 14 60 1 9 5 20 8 26 4 6 9 21 11 35 3 13 12 48 20 77 9 28 13 52 10 52 -3
0 0 6 6 14 6 8 11 18 10 22 -1 5 0 11 1 14 1 3 3 12 5 20 2 8 20 76 40 150 20
74 38 146 41 160 2 14 9 36 14 50 10 25 70 253 75 280 1 8 5 22 8 30 4 13 11
39 23 85 4 18 51 198 79 300 34 126 36 137 37 153 1 6 5 12 9 12 4 0 6 8 5 17
-2 9 7 48 19 87 12 39 23 74 23 79 1 4 2 8 3 10 0 1 2 11 5 22 2 11 17 70 34
130 17 61 33 120 36 132 2 12 22 88 45 170 22 81 42 156 44 166 2 10 7 27 10
37 3 10 8 28 10 39 3 12 7 29 9 39 3 9 11 41 18 70 7 28 16 52 21 52 4 0 6 4
3 9 -3 4 6 48 19 97 13 48 23 89 22 90 -1 2 -63 34 -137 72 -114 58 -294 169
-336 207 -7 5 -26 21 -44 35 -117 92 -232 206 -324 320 -37 47 -74 93 -82 103
-8 9 -14 19 -14 22 0 3 -19 35 -43 72 -86 135 -207 417 -207 482 0 10 -3 21
-7 25 -4 3 -8 12 -9 19 -1 7 -4 23 -7 37 -5 26 -12 66 -23 140 -17 103 -9 420
12 510 3 14 6 32 6 40 0 8 5 21 11 28 5 6 7 12 4 12 -4 0 4 41 18 90 4 16 26
76 45 125 6 17 11 31 10 33 -2 6 95 187 102 190 4 2 8 8 8 13 0 9 49 82 104
154 57 75 223 232 312 296 95 67 370 213 385 203 5 -3 9 0 9 5 0 6 3 10 8 9 4
0 16 2 27 6 60 23 207 64 254 72 14 2 40 7 56 11 17 4 32 7 35 8 3 1 32 5 65
9 32 4 68 10 78 12 68 13 341 18 484 10 95 -6 86 -16 109 114 4 19 9 40 13 45
3 6 7 19 9 30 2 19 15 73 97 416 19 81 35 152 35 158 0 8 -292 10 -1122 9
-987 -3 -1121 -5 -1123 -18 -6 -39 -15 -87 -20 -107 -10 -44 -13 -58 -20 -100
-4 -24 -6 -44 -5 -45 1 -2 -3 -14 -8 -28 -5 -14 -13 -45 -16 -70 -7 -51 -14
-85 -16 -85 -2 0 -8 -31 -14 -70 -3 -16 -8 -41 -11 -55 -3 -14 -8 -40 -11 -59
-3 -18 -8 -43 -10 -55 -3 -11 -8 -34 -10 -51 -3 -16 -12 -61 -21 -100 -14 -66
-17 -83 -27 -137 -5 -24 -65 -329 -72 -363 -2 -11 -7 -33 -10 -50 -3 -16 -12
-64 -20 -105 -9 -41 -17 -86 -19 -100 -2 -14 -4 -25 -5 -25 -1 0 -4 -11 -5
-25 -2 -14 -11 -59 -20 -100 -9 -41 -18 -86 -21 -100 -2 -14 -7 -41 -11 -60
-4 -19 -8 -42 -9 -50 -2 -8 -6 -28 -10 -45 -3 -16 -8 -41 -9 -55 -2 -14 -4
-25 -5 -25 -2 0 -7 -24 -15 -70 -3 -22 -8 -48 -11 -57 -3 -10 -7 -29 -10 -43
-2 -14 -6 -36 -9 -50 -3 -14 -7 -37 -10 -52 -3 -16 -11 -53 -17 -83 -6 -30
-13 -62 -14 -70 -2 -8 -6 -31 -10 -50 -4 -19 -8 -44 -10 -55 -1 -11 -7 -42
-13 -70 -6 -27 -13 -61 -16 -75 -2 -14 -7 -36 -10 -50 -3 -14 -7 -36 -10 -50
-3 -14 -18 -95 -35 -180 -17 -85 -32 -165 -35 -178 -2 -13 -6 -31 -9 -40 -3
-9 -8 -35 -11 -57 -5 -39 -8 -54 -20 -107 -7 -30 -16 -78 -21 -103 -2 -11 -5
-31 -8 -45 -3 -14 -8 -36 -11 -50 -2 -14 -9 -47 -15 -75 -5 -27 -12 -61 -14
-75 -8 -45 -26 -134 -31 -157 -3 -13 -7 -33 -10 -45 -3 -13 -9 -48 -15 -78
-11 -61 -24 -124 -35 -180 -1 -3 -5 -25 -9 -50 -8 -44 -11 -58 -21 -102 -3
-13 -8 -36 -11 -53 -3 -16 -11 -61 -19 -100 -8 -38 -17 -86 -20 -105 -3 -19
-11 -55 -16 -80 -6 -25 -13 -56 -15 -70 -3 -14 -13 -70 -24 -125 -11 -55 -22
-111 -25 -125 -3 -14 -9 -47 -15 -75 -5 -27 -12 -63 -15 -80 -9 -45 -24 -120
-50 -250 -3 -16 -8 -43 -11 -60 -2 -16 -7 -41 -11 -55 -9 -38 -10 -42 -17 -80
-3 -19 -10 -57 -16 -85 -11 -51 -14 -65 -24 -125 -4 -19 -9 -42 -11 -50 -2 -8
-6 -32 -10 -53 -9 -65 -27 -127 -36 -127 -5 0 -11 12 -15 27 -3 16 -8 36 -11
45 -7 27 -15 71 -16 86 0 6 -3 12 -7 12 -3 0 -6 8 -7 18 -2 19 -8 48 -22 105
-5 20 -7 37 -4 37 3 0 0 6 -6 14 -7 8 -13 28 -13 45 -1 17 -4 31 -7 31 -4 0
-7 8 -7 18 -1 9 -4 29 -8 45 -3 15 -8 37 -11 50 -3 12 -7 32 -10 45 -3 12 -7
30 -9 40 -2 9 -9 35 -14 57 -6 22 -13 51 -16 65 -3 14 -12 52 -20 86 -8 34
-17 72 -20 85 -2 13 -15 69 -29 124 -14 55 -35 145 -47 200 -12 55 -24 107
-27 115 -3 8 -8 26 -10 40 -2 14 -10 49 -18 79 -8 30 -12 58 -9 62 2 4 0 9 -5
11 -5 1 -12 21 -15 43 -4 22 -13 65 -21 95 -8 31 -17 67 -19 81 -2 13 -5 24
-6 24 -1 0 -4 14 -6 30 -3 17 -9 44 -14 60 -5 17 -11 41 -14 55 -8 38 -13 61
-31 134 -9 37 -18 75 -20 84 -2 9 -4 17 -5 17 -1 0 -3 9 -4 20 -2 11 -15 70
-30 130 -15 61 -29 119 -32 130 -5 27 -13 60 -20 88 -3 12 -7 33 -10 47 -3 14
-10 43 -16 65 -5 22 -12 47 -13 55 -2 8 -13 56 -25 105 -12 50 -23 99 -25 110
-2 11 -7 31 -10 45 -4 14 -10 43 -15 65 -5 22 -13 52 -19 66 -5 15 -7 29 -5
32 3 3 1 14 -4 24 -5 10 -12 34 -15 53 -2 19 -12 64 -22 100 -9 36 -18 72 -20
80 -2 8 -11 47 -20 85 -9 39 -18 77 -20 85 -2 8 -13 57 -25 108 -12 51 -23
101 -25 110 -2 9 -4 17 -5 17 -1 0 -4 11 -6 25 -4 22 -14 66 -74 315 -11 44
-21 91 -24 105 -2 14 -5 25 -6 25 -1 0 -3 9 -5 20 -2 11 -18 76 -34 145 -16
69 -32 136 -34 150 -3 14 -13 54 -22 90 -17 67 -22 87 -31 129 -3 13 -12 51
-20 85 -8 34 -17 70 -19 81 -23 104 -49 213 -53 225 -7 19 -9 29 -15 65 -3 17
-13 59 -22 95 -9 36 -19 74 -20 85 -2 11 -9 40 -15 65 -7 25 -14 54 -16 65 -5
25 -9 42 -29 125 -9 35 -18 74 -20 85 -2 11 -4 20 -5 20 -1 0 -4 12 -6 28 -3
15 -14 62 -25 105 -11 42 -21 84 -21 92 -1 8 -10 27 -20 43 -11 15 -16 27 -12
27 4 0 -1 9 -11 20 -18 20 -31 20 -1119 20 l-1101 0 -15 -22z"/>
<path d="M11288 9684 c-2 -2 -19 -5 -38 -8 -99 -14 -117 -17 -145 -23 -16 -4
-34 -8 -40 -9 -5 0 -17 -4 -25 -7 -8 -3 -33 -11 -55 -17 -22 -6 -55 -19 -74
-27 -18 -8 -39 -16 -45 -18 -24 -5 -111 -47 -117 -56 -3 -6 -8 -10 -10 -9 -8
4 -79 -34 -79 -42 0 -4 -7 -8 -15 -8 -8 0 -15 -5 -15 -11 0 -5 -4 -8 -9 -4 -5
3 -13 0 -16 -6 -4 -6 -19 -18 -34 -27 -69 -43 -223 -187 -296 -278 -22 -27
-43 -51 -46 -54 -3 -3 -13 -19 -22 -37 -9 -17 -23 -37 -30 -45 -7 -7 -21 -29
-31 -48 -62 -119 -106 -211 -109 -227 -1 -10 -6 -23 -9 -29 -9 -13 -47 -148
-55 -189 -3 -16 -9 -38 -15 -49 -8 -14 -7 -17 3 -11 8 6 10 4 4 -4 -13 -22
-19 -92 -19 -246 0 -178 7 -244 40 -365 8 -30 17 -65 20 -78 20 -94 170 -402
197 -402 4 0 7 -7 7 -15 0 -7 8 -19 18 -24 9 -6 13 -11 9 -11 -4 0 -3 -6 3
-12 102 -124 200 -222 295 -292 102 -77 128 -92 305 -181 23 -11 128 -48 210
-73 19 -6 51 -14 70 -17 19 -3 42 -8 50 -10 62 -18 375 -26 469 -12 101 15
209 40 271 64 8 3 21 7 29 9 31 6 171 68 171 76 0 4 8 8 19 8 10 0 24 6 30 14
7 8 23 17 36 20 14 4 25 11 25 16 0 6 5 10 11 10 9 0 93 54 109 70 3 3 26 22
52 42 64 53 168 155 203 203 17 22 33 42 36 45 14 12 109 157 109 167 0 6 3
13 8 15 7 3 73 132 78 153 3 12 42 123 51 145 7 18 9 26 16 63 3 15 9 37 12
48 18 57 29 177 29 324 1 135 -2 164 -23 285 -60 342 -283 696 -573 909 -46
33 -88 64 -93 68 -24 18 -190 105 -205 108 -3 1 -21 8 -40 17 -19 8 -53 20
-75 27 -22 7 -47 15 -55 18 -17 7 -19 7 -85 23 -65 15 -80 18 -140 26 -53 7
-352 14 -357 8z"/>
</g>
</svg>
