<?xml version="1.0" standalone="no"?>
<!DOCTYPE svg PUBLIC "-//W3C//DTD SVG 20010904//EN"
 "http://www.w3.org/TR/2001/REC-SVG-20010904/DTD/svg10.dtd">
<svg version="1.0" xmlns="http://www.w3.org/2000/svg"
 width="700.000000pt" height="700.000000pt" viewBox="0 0 700.000000 700.000000"
 preserveAspectRatio="xMidYMid meet">
<metadata>
Created by potrace 1.11, written by Peter Selinger 2001-2013
</metadata>
<g transform="translate(0.000000,700.000000) scale(0.100000,-0.100000)"
fill="#000000" stroke="none">
<path d="M3676 6768 c3 -5 -6 -8 -20 -8 -14 0 -28 -5 -31 -10 -4 -6 -11 -8
-16 -5 -5 4 -9 1 -9 -5 0 -7 -7 -9 -17 -6 -10 4 -14 4 -11 0 4 -4 -8 -19 -27
-34 -19 -15 -32 -30 -28 -34 3 -3 1 -6 -5 -6 -7 0 -12 -7 -12 -15 0 -8 -4 -15
-8 -15 -5 0 -15 -19 -21 -42 -7 -24 -18 -49 -25 -57 -7 -10 -7 -12 0 -8 7 4
10 -10 8 -44 -1 -27 2 -52 7 -55 5 -3 9 -16 9 -30 0 -13 5 -24 10 -24 6 0 10
-7 10 -15 0 -7 8 -19 18 -24 9 -6 13 -11 9 -11 -17 0 46 -53 97 -79 45 -24 63
-28 127 -26 41 1 85 8 99 15 14 8 29 14 33 15 4 0 12 7 17 15 5 8 10 12 10 8
0 -4 15 7 34 25 18 18 32 35 29 40 -2 4 1 7 6 7 6 0 11 6 11 14 0 7 6 19 14
25 8 7 13 21 11 31 -2 11 0 22 4 24 7 4 6 54 -2 149 -1 9 -5 17 -9 17 -4 0 -8
7 -8 15 0 8 -4 15 -10 15 -5 0 -9 4 -7 9 3 12 -90 101 -97 93 -3 -3 -6 0 -6 6
0 7 -8 12 -18 12 -10 0 -22 3 -26 7 -13 14 -158 24 -150 11z"/>
<path d="M1495 6402 c-3 -3 -22 -7 -43 -8 -20 -1 -37 -3 -37 -4 0 -1 -13 -4
-30 -6 -16 -3 -32 -9 -33 -15 -2 -5 -8 -7 -13 -3 -5 3 -15 2 -21 -3 -7 -4 -15
-8 -18 -8 -20 -3 -80 -31 -80 -38 0 -4 -4 -6 -9 -3 -5 3 -14 -1 -21 -9 -7 -8
-19 -15 -26 -15 -8 0 -14 -4 -14 -9 0 -5 -9 -13 -20 -16 -11 -4 -18 -11 -15
-16 4 -5 0 -9 -7 -9 -16 0 -118 -97 -118 -111 0 -5 -4 -9 -10 -9 -5 0 -10 -6
-10 -13 0 -7 -11 -25 -25 -40 -14 -15 -23 -27 -20 -27 4 0 -3 -13 -14 -29 -11
-15 -18 -31 -14 -35 3 -3 -1 -14 -10 -24 -10 -10 -14 -22 -10 -25 3 -4 1 -7
-6 -7 -7 0 -9 -4 -6 -10 3 -5 0 -10 -7 -10 -9 0 -9 -3 2 -10 9 -6 11 -10 3
-10 -7 0 -10 -7 -7 -15 4 -8 2 -15 -3 -15 -5 0 -10 -10 -10 -22 -3 -52 -8 -73
-18 -80 -6 -5 -6 -8 0 -8 6 0 10 -35 9 -88 -1 -48 3 -95 7 -104 5 -9 10 -33
11 -52 2 -20 7 -36 12 -36 4 0 6 -7 2 -15 -3 -8 -1 -15 4 -15 4 0 11 -13 15
-30 4 -16 11 -30 16 -30 6 0 8 -4 4 -9 -3 -5 2 -17 11 -25 8 -9 12 -16 9 -16
-8 0 63 -100 87 -121 10 -9 18 -20 18 -25 1 -10 133 -112 135 -104 0 3 11 -4
23 -16 12 -12 40 -27 62 -34 22 -7 40 -16 40 -20 0 -4 6 -7 13 -8 30 -4 54
-10 77 -19 14 -6 31 -8 38 -6 6 3 12 1 12 -4 0 -5 54 -9 120 -9 66 0 120 3
120 7 0 4 8 6 18 4 9 -1 21 0 27 3 9 5 26 9 63 14 6 1 12 5 12 10 0 5 4 7 8 4
17 -10 228 111 242 139 3 6 7 10 10 9 3 -1 13 7 23 17 9 11 15 19 13 19 -3 0
9 15 25 33 48 53 64 74 67 88 2 8 7 16 11 19 10 6 26 51 23 63 -1 4 2 7 7 7 5
0 12 14 16 30 4 17 11 30 16 30 6 0 7 5 4 10 -4 6 -1 18 7 27 11 14 11 16 -1
8 -11 -6 -12 -5 -5 6 4 8 10 21 11 29 18 97 23 189 12 211 -5 9 -3 21 4 29 9
10 9 11 0 6 -9 -5 -13 2 -14 21 -1 15 -1 32 0 37 1 4 -4 14 -10 22 -6 8 -9 14
-6 14 6 0 -20 74 -49 138 -10 23 -22 42 -26 42 -5 0 -8 7 -8 15 0 8 -4 15 -10
15 -5 0 -10 4 -10 10 0 24 -156 180 -179 180 -5 0 -11 6 -14 14 -3 7 -18 16
-32 20 -15 4 -34 14 -42 21 -8 8 -23 15 -34 15 -11 0 -18 4 -14 9 3 6 -4 8
-15 6 -11 -2 -20 0 -20 6 0 5 -10 9 -23 9 -13 0 -27 3 -30 7 -7 6 -27 10 -97
18 -19 2 -35 4 -35 6 0 1 -10 3 -22 4 -13 1 -23 -2 -23 -7 0 -5 -5 -6 -11 -3
-14 9 -57 14 -64 7z"/>
<path d="M5641 5958 c-13 -4 -27 -6 -32 -2 -5 3 -9 0 -9 -6 0 -7 -7 -10 -15
-6 -8 3 -15 2 -15 -3 0 -5 -14 -14 -31 -21 -31 -13 -140 -110 -123 -110 5 0 4
-4 -2 -8 -14 -9 -57 -92 -48 -92 4 0 1 -7 -6 -15 -6 -8 -9 -19 -5 -25 3 -5 2
-10 -3 -10 -10 0 -10 -143 1 -151 4 -3 9 -16 12 -29 11 -59 109 -190 142 -190
7 0 16 -6 19 -14 3 -8 19 -18 35 -21 16 -4 29 -10 29 -14 0 -4 6 -8 13 -9 6 0
39 -4 72 -7 83 -9 102 -7 160 15 14 5 25 7 25 3 0 -3 9 2 20 12 11 10 20 15
20 11 0 -7 15 4 54 41 13 12 27 19 30 16 3 -4 6 -1 6 5 0 6 6 17 13 24 24 24
66 96 60 102 -4 3 -1 6 6 6 7 0 9 5 6 10 -4 6 -2 17 5 25 10 12 16 138 8 175
-10 43 -43 118 -50 114 -4 -3 -8 2 -8 11 0 21 -98 117 -111 109 -5 -3 -9 0 -9
6 0 12 -61 41 -91 43 -11 1 -19 4 -19 7 0 9 -134 7 -159 -2z"/>
<path d="M2805 4840 c-3 -6 -37 -9 -75 -8 -38 1 -72 -1 -76 -4 -3 -4 -6 -121
-7 -260 l0 -253 334 -2 c184 -1 348 -2 365 -3 23 0 33 -6 37 -19 3 -11 2 -22
-1 -26 -10 -9 -11 -35 -1 -35 4 0 5 -10 0 -22 -4 -13 -5 -35 0 -50 5 -18 3
-29 -4 -32 -8 -3 -8 -5 1 -5 10 -1 10 -6 2 -21 -8 -14 -8 -20 0 -20 6 0 8 -5
3 -12 -11 -19 -13 -38 -2 -38 5 0 5 -10 0 -23 -5 -13 -5 -30 -1 -37 5 -8 6
-19 2 -25 -10 -16 -11 -35 -1 -35 4 0 5 -10 0 -22 -4 -13 -5 -35 0 -50 4 -16
4 -28 -1 -28 -10 0 -8 -33 4 -41 4 -4 3 -16 -3 -28 -8 -15 -9 -21 -1 -21 6 0
8 -5 3 -12 -11 -19 -12 -38 -2 -38 6 0 5 -8 -1 -20 -7 -13 -7 -20 -1 -20 7 0
7 -8 2 -23 -5 -13 -5 -30 -1 -37 5 -8 6 -19 2 -25 -11 -16 -11 -35 -1 -35 6 0
5 -8 -1 -20 -8 -14 -8 -20 0 -20 8 0 8 -6 0 -20 -8 -14 -8 -20 0 -20 8 0 8 -6
0 -20 -8 -14 -8 -20 0 -20 8 0 8 -6 0 -20 -6 -11 -7 -20 -2 -20 10 0 8 -42 -3
-59 -3 -6 -1 -11 5 -11 6 0 8 -5 3 -12 -11 -19 -13 -38 -2 -38 5 0 5 -10 0
-23 -5 -13 -5 -30 -1 -37 5 -8 6 -19 2 -25 -10 -16 -11 -35 -1 -35 4 0 5 -10
0 -22 -4 -13 -5 -35 0 -50 5 -18 3 -29 -4 -32 -9 -5 -9 -8 0 -12 9 -4 10 -11
3 -25 -8 -13 -7 -19 0 -19 8 0 8 -6 0 -20 -8 -14 -8 -20 0 -20 8 0 8 -6 0 -20
-6 -12 -7 -20 -1 -20 6 0 6 -11 1 -29 -5 -20 -5 -31 2 -33 8 -3 7 -11 -1 -26
-8 -15 -8 -22 -1 -22 6 0 8 -5 3 -12 -11 -19 -12 -38 -2 -38 6 0 5 -8 -1 -20
-7 -13 -7 -20 -1 -20 7 0 7 -8 2 -23 -5 -13 -5 -30 -1 -37 5 -8 6 -19 2 -25
-10 -15 -11 -35 -2 -35 8 0 5 -43 -5 -59 -3 -6 -1 -11 5 -11 6 0 8 -5 3 -12
-11 -19 -13 -38 -2 -38 4 0 6 -6 3 -14 -3 -8 -1 -23 5 -33 6 -10 11 -13 11 -8
0 6 111 10 315 9 314 -1 315 -1 316 20 0 11 1 445 1 964 l1 942 61 1 c33 0
195 0 358 0 221 0 299 3 305 12 11 17 12 67 1 67 -5 0 -6 6 -1 13 12 20 12 37
0 37 -8 0 -9 3 -2 8 13 8 15 102 2 102 -4 0 -5 6 0 13 12 18 10 101 -2 110 -7
5 -7 9 0 15 6 4 11 37 10 75 0 76 12 69 -118 68 -60 -1 -76 2 -71 11 6 10 5
10 -7 1 -21 -17 -803 -17 -793 0 6 9 5 9 -7 0 -20 -16 -162 -16 -152 0 5 9 3
9 -8 0 -18 -14 -803 -17 -794 -3 4 6 4 10 1 10 -3 0 -8 -5 -11 -10z"/>
<path d="M720 4285 c0 -6 -17 -11 -37 -13 -54 -3 -87 -7 -98 -14 -6 -3 -18 -4
-28 -3 -10 2 -14 -1 -10 -8 4 -6 0 -8 -10 -4 -10 3 -17 2 -17 -4 0 -6 -4 -8
-8 -5 -5 3 -25 -4 -45 -14 -20 -11 -44 -20 -52 -20 -9 0 -18 -7 -21 -15 -4 -8
-11 -15 -18 -15 -6 0 -23 -10 -38 -23 -15 -13 -38 -32 -52 -42 -14 -10 -23
-22 -20 -27 3 -4 -2 -8 -10 -8 -9 0 -16 -4 -16 -8 0 -5 -8 -17 -17 -28 -45
-50 -100 -144 -86 -144 5 0 2 -4 -5 -9 -7 -4 -15 -14 -16 -22 -2 -8 -6 -22
-10 -31 -4 -9 -9 -25 -11 -35 -2 -10 -4 -18 -5 -18 -1 0 -3 -12 -4 -26 -2 -14
-6 -32 -11 -39 -6 -9 -4 -11 6 -5 11 7 12 6 3 -6 -12 -14 -15 -179 -4 -179 3
0 6 -10 7 -22 1 -34 8 -67 16 -74 4 -4 7 -17 7 -29 0 -13 7 -28 15 -35 8 -7
13 -16 10 -20 -3 -5 1 -15 9 -23 8 -8 12 -17 9 -21 -4 -3 -1 -6 5 -6 7 0 12
-6 12 -13 0 -7 9 -23 20 -35 11 -12 20 -26 20 -32 0 -6 5 -8 10 -5 5 3 10 1
10 -6 0 -24 149 -149 177 -149 7 0 13 -4 13 -8 0 -10 80 -46 94 -43 4 1 14 -3
22 -10 8 -6 21 -9 29 -5 8 3 15 1 15 -4 0 -5 12 -9 28 -10 67 -2 82 -5 82 -14
0 -7 3 -8 8 -1 9 13 42 15 42 3 0 -6 6 -5 15 2 12 10 15 10 15 -1 0 -9 3 -10
8 -4 4 6 14 10 22 10 8 -1 40 5 70 13 30 8 60 15 65 16 6 1 32 12 59 24 27 12
52 22 57 22 5 0 9 5 9 10 0 6 7 10 15 10 8 0 15 5 15 10 0 6 6 10 13 10 6 0
23 12 36 25 13 14 30 25 38 25 8 0 12 4 8 9 -3 5 3 16 13 23 29 21 92 104 85
111 -3 4 -2 7 4 7 8 0 37 49 34 57 0 2 7 18 18 35 10 18 17 43 16 56 -1 12 2
22 7 22 4 0 8 11 8 24 0 13 6 27 13 29 9 4 9 6 -1 6 -8 1 -10 6 -6 13 9 15 14
168 5 168 -3 0 -7 15 -7 33 -2 55 -16 100 -56 185 -17 34 -34 62 -40 62 -5 0
-6 5 -3 10 3 6 1 10 -4 10 -6 0 -10 6 -9 13 2 6 -3 11 -9 9 -7 -1 -13 5 -13
13 0 12 -44 65 -55 65 -2 0 -15 10 -29 23 -39 35 -73 60 -80 59 -3 -1 -15 7
-26 18 -11 11 -29 20 -40 20 -11 0 -20 3 -20 8 0 8 -63 31 -100 37 -14 1 -25
4 -25 5 0 3 -62 11 -95 12 -19 1 -38 6 -42 12 -5 7 -8 7 -8 1z"/>
<path d="M6437 4084 c-4 -4 -19 -8 -34 -10 -16 -2 -35 -5 -43 -7 -8 -3 -30 -8
-47 -12 -18 -4 -33 -12 -33 -18 0 -6 -3 -7 -6 -4 -4 4 -20 -3 -35 -14 -16 -11
-29 -17 -29 -12 0 4 -7 -3 -16 -15 -8 -12 -18 -21 -22 -19 -4 2 -15 -4 -24
-15 -10 -10 -16 -18 -13 -18 2 0 -11 -16 -30 -36 -19 -20 -33 -40 -29 -45 3
-5 1 -9 -5 -9 -6 0 -18 -22 -28 -49 -9 -27 -20 -48 -23 -46 -17 11 -15 -219 3
-264 9 -21 13 -41 10 -45 -4 -3 0 -6 7 -6 7 0 11 -3 7 -6 -6 -7 39 -85 57 -96
6 -4 7 -8 1 -8 -14 0 73 -76 128 -110 26 -16 47 -27 47 -25 0 3 13 -1 29 -9
16 -9 31 -12 35 -9 3 4 6 1 6 -6 0 -7 4 -10 9 -7 5 4 21 2 35 -4 19 -7 26 -6
26 3 0 8 3 8 8 2 8 -12 41 -13 59 -2 6 4 15 3 18 -3 4 -7 11 -7 18 -2 7 5 22
8 35 7 12 -1 22 1 22 5 0 4 6 7 13 8 22 2 42 8 65 20 12 7 22 9 22 5 0 -4 4
-3 8 2 4 6 25 23 47 39 22 16 53 43 68 60 15 17 32 30 38 28 6 -1 7 2 4 8 -4
6 -1 19 7 28 33 41 64 121 59 151 -1 7 1 11 6 8 10 -6 11 124 0 140 -4 6 -3
14 3 18 6 4 7 12 3 18 -4 7 -8 19 -9 27 0 8 -6 28 -12 43 -7 16 -12 33 -12 38
0 5 -4 9 -10 9 -6 0 -9 3 -8 8 4 11 -42 82 -53 82 -6 0 -8 4 -5 9 3 5 -5 16
-18 24 -13 9 -31 24 -41 34 -21 20 -51 39 -77 49 -10 3 -18 11 -18 16 0 5 -4
7 -9 3 -5 -3 -13 0 -16 6 -4 5 -13 8 -21 5 -7 -3 -16 -1 -19 4 -4 6 -19 10
-34 10 -15 0 -32 5 -39 12 -7 7 -12 8 -12 2 0 -11 -52 -13 -61 -1 -3 4 -8 4
-12 1z"/>
<path d="M1545 2180 c3 -4 -8 -8 -23 -8 -45 0 -82 -6 -82 -14 0 -4 -9 -5 -20
-3 -11 2 -20 0 -20 -6 0 -5 -9 -9 -19 -9 -11 0 -23 -5 -26 -10 -4 -6 -11 -8
-16 -5 -5 4 -9 3 -9 -2 0 -4 -13 -14 -29 -21 -16 -7 -41 -24 -55 -37 -14 -13
-26 -22 -26 -19 0 3 -17 -12 -39 -33 -21 -21 -36 -41 -34 -45 2 -5 0 -8 -4 -8
-5 0 -19 -18 -33 -40 -14 -22 -28 -40 -32 -40 -4 0 -5 -7 -2 -15 4 -8 1 -15
-7 -15 -7 0 -10 -2 -7 -6 3 -3 -2 -22 -12 -42 -10 -20 -16 -44 -15 -54 2 -10
0 -18 -4 -18 -8 0 -14 -57 -13 -130 2 -82 7 -130 14 -130 5 0 7 -3 6 -7 -5
-24 39 -126 71 -165 8 -10 11 -18 7 -18 -4 0 15 -22 42 -50 27 -27 47 -52 44
-55 -3 -3 0 -5 7 -5 6 0 22 -9 34 -20 12 -12 45 -32 75 -47 29 -14 55 -30 58
-34 3 -5 9 -7 14 -4 4 3 26 -2 48 -9 22 -8 43 -12 46 -9 3 4 6 2 6 -3 0 -10
189 -12 205 -2 6 3 25 9 44 13 48 10 161 64 161 76 0 6 5 7 10 4 6 -3 10 -1
10 6 0 7 2 10 6 7 7 -7 114 95 114 109 0 6 7 13 15 17 8 3 15 12 15 19 0 8 7
20 15 27 8 7 15 21 15 30 0 10 5 20 11 22 6 2 12 16 12 31 1 15 8 29 15 32 7
3 10 9 7 15 -3 5 -3 16 1 22 5 7 9 36 9 63 1 28 5 56 8 62 4 7 3 14 -3 18 -7
4 -7 12 0 24 5 10 6 21 3 25 -4 4 -8 17 -9 29 -2 38 -27 127 -36 127 -5 0 -7
4 -3 9 3 5 -2 16 -10 24 -8 9 -15 23 -15 31 0 9 -5 16 -11 16 -5 0 -8 4 -4 9
3 6 -3 14 -12 20 -10 6 -14 11 -9 11 5 0 -3 11 -18 25 -14 13 -26 29 -26 35 0
5 -3 10 -7 10 -5 0 -22 13 -38 29 -37 34 -115 84 -115 74 0 -5 -4 -2 -9 5 -4
7 -14 15 -22 16 -8 2 -22 6 -31 10 -9 4 -22 8 -30 10 -7 1 -19 5 -25 9 -7 5
-17 6 -22 2 -5 -3 -12 -2 -15 3 -3 5 -19 7 -35 6 -17 -1 -31 2 -31 6 0 5 -13
5 -30 0 -16 -5 -30 -5 -30 -1 0 4 -7 8 -15 8 -8 0 -12 -4 -10 -7z"/>
<path d="M5585 2142 c-2 -2 -20 -6 -42 -8 -41 -5 -78 -12 -78 -14 0 -1 -8 -3
-17 -5 -27 -5 -148 -69 -148 -77 0 -5 -4 -8 -10 -8 -13 0 -119 -108 -112 -115
3 -3 0 -5 -7 -5 -7 0 -9 -5 -6 -10 3 -6 -1 -13 -9 -16 -9 -3 -14 -10 -11 -14
3 -4 -2 -13 -10 -20 -8 -7 -13 -16 -10 -20 3 -5 1 -11 -5 -15 -5 -3 -10 -15
-10 -26 0 -10 -5 -19 -10 -19 -6 0 -8 -11 -6 -25 3 -17 1 -23 -6 -19 -7 5 -9
1 -5 -9 3 -9 2 -19 -4 -23 -6 -4 -6 -11 2 -20 6 -8 7 -14 2 -14 -17 0 -4 -180
16 -217 6 -13 9 -23 5 -23 -3 0 -1 -6 5 -13 6 -8 8 -17 4 -20 -3 -4 -1 -7 6
-7 7 0 9 -4 6 -10 -3 -5 -1 -10 5 -10 6 0 9 -4 6 -8 -3 -5 4 -18 14 -30 11
-12 20 -26 20 -32 0 -15 131 -140 147 -140 7 0 13 -4 13 -9 0 -5 16 -15 35
-22 19 -7 35 -17 35 -22 0 -4 4 -5 10 -2 5 3 19 1 30 -5 25 -13 53 -21 97 -25
17 -1 36 -5 41 -9 6 -3 14 -1 18 5 5 8 9 8 14 -1 4 -7 13 -9 20 -5 7 4 31 9
54 10 23 1 59 8 81 15 22 8 42 14 45 15 3 0 15 6 28 13 12 7 22 9 22 5 0 -4 4
-3 8 2 4 6 27 24 52 40 48 33 110 89 110 101 0 3 10 16 23 28 12 12 23 29 25
37 2 7 9 19 16 24 7 6 11 16 9 23 -3 6 1 12 8 12 7 0 9 3 6 6 -3 4 -2 15 4 26
9 17 15 38 23 85 1 7 5 16 9 19 4 4 2 13 -4 21 -7 7 -7 13 -2 13 6 0 8 31 6
78 -6 104 -6 102 -12 102 -4 0 -8 12 -9 27 -1 15 -6 29 -11 32 -4 3 -11 17
-14 31 -15 62 -171 243 -191 223 -3 -4 -6 -2 -6 4 0 22 -145 80 -215 86 -11 1
-23 7 -27 12 -5 6 -8 5 -8 -3 0 -8 -5 -10 -12 -6 -13 8 -56 12 -63 6z"/>
<path d="M3499 1299 c-7 -4 -18 -5 -26 -2 -7 3 -13 1 -13 -4 0 -8 -15 -12 -57
-15 -7 -1 -13 -5 -13 -9 0 -4 -13 -10 -30 -14 -16 -4 -30 -11 -30 -16 0 -5 -6
-9 -14 -9 -7 0 -19 -7 -26 -15 -7 -9 -15 -14 -17 -11 -6 6 -103 -90 -103 -102
0 -5 -6 -12 -13 -15 -16 -6 -82 -137 -93 -182 -10 -39 -14 -255 -5 -255 4 0 8
-12 9 -27 1 -14 11 -42 22 -60 11 -19 15 -31 9 -27 -13 8 13 -35 55 -91 38
-50 98 -109 116 -113 8 -2 19 -11 26 -20 7 -9 16 -17 21 -17 4 -1 19 -7 33
-15 14 -8 27 -15 30 -15 3 -1 25 -8 50 -15 25 -7 48 -14 53 -16 4 -1 9 -3 12
-4 14 -7 31 -5 37 5 5 7 8 7 8 0 0 -14 132 -9 178 6 18 6 39 12 45 13 7 1 18
5 25 9 6 5 12 5 12 0 0 -4 4 -3 8 2 4 6 25 19 46 30 22 11 50 30 63 43 12 12
24 21 26 20 2 -2 20 14 39 34 19 21 33 38 31 38 -2 0 2 7 9 15 29 32 36 42 42
63 4 12 12 22 17 22 6 0 8 4 5 8 -3 5 1 20 9 35 8 15 11 27 8 27 -3 0 -1 6 4
13 6 6 9 20 8 30 -2 9 0 17 5 17 4 0 8 47 8 105 0 58 -3 105 -7 105 -4 0 -8
13 -9 30 0 16 -11 49 -23 72 -21 41 -26 52 -56 108 -7 14 -13 21 -13 15 0 -5
-8 2 -17 15 -9 14 -23 29 -30 33 -7 5 -10 13 -7 19 4 7 2 8 -4 4 -7 -4 -12 -3
-12 3 0 5 -9 13 -20 16 -11 3 -20 13 -20 21 0 8 -3 13 -7 12 -14 -4 -53 13
-53 23 0 5 -7 9 -15 9 -8 0 -15 5 -15 11 0 5 -4 8 -9 5 -5 -3 -24 1 -44 9 -19
8 -47 17 -63 20 -43 10 -192 12 -205 4z"/>
</g>
</svg>
