<svg xmlns="http://www.w3.org/2000/svg" width="999.925" height="445.661" viewBox="0 0 4088 1822">
  <defs>
    <style>
      .cls-1 {
        fill: #3a7a80;
        fill-rule: evenodd;
      }
    </style>
  </defs>
  <path id="Kleurenvulling_2" data-name="Kleurenvulling 2" class="cls-1" d="M2918,386c-0.44-38.428-5.83-80.42,0-117,24.19-8.789,102.92-35.9,114-52,17.6-25.583-37.58-83.241-52-89l-276-12q130.98,307.97,262,616c53.19-25.283,115.64-39.185,180-54,138.37-31.855,303.18-4.348,410,37,271.74,105.183,452.6,303.11,519,613,26.04,121.55,11.96,277.18-20,380l-45,114H3863c4.39-16.82,21.66-33.62,29-51,24.47-57.93,42.6-117.55,56-187,21.95-113.75,3.13-252.02-30-337-76.24-195.54-199.05-325.263-392-404-126.71-51.707-314.01-67.019-452-13l-58,22q76.485,174.483,153,349c33.55,65.1,87.25,119.78,131,176,22.18,28.5,118.4,103.21,54,146-14.98,9.96-42.32,7.89-57-1-40.52-24.53-73.39-63.22-102-100-24.98-32.11-54.93-60.98-77-96-55.21-87.6-96.73-186.3-140-286q-29.49-67.993-59-136c-144.89,77.653-248.15,245.08-293,425-16.44,65.93-26.32,167.52-11,244,12.22,61.01,26.96,119.17,49,171q19.995,39,40,78H2557q-18-43.995-36-88c-18.34-46.37-25.16-103.19-36-156-12.9-62.89-10.04-155.55,2-217,30.81-157.22,82.85-280.93,163-387,17.8-23.557,37.13-50.6,60-69q51.99-44,104-88l52-34q-45.99-108.489-92-217c-37.16,19.194-62.08,61.99-87,94-45.87,58.912-98.81,111.715-145,171-116.28,149.259-245.47,288.42-362,438-39.76,51.04-85.2,97.57-123,151-36.86,52.1,16.93,75.04,6,137-13.58,76.98-57.58,135.72-121,163q-24.495,7.005-49,14c-62.44,11.4-141.49-22.6-166-53q-18-19.995-36-40-6.495-10.005-13-20c-14.98-13.54-56.25-13.93-83-14,0.81,86.06-47.31,145.38-66,215H1382q10.5-18.495,21-37c21.74-49.7,60.91-129.93,63-193q-276.975-25.995-554-52c-67.1-11.82-148.566,7.8-166-53-7.643-26.65,12.064-39.27,22-52q39-48.99,78-98,169.484-210.975,339-422h-2c-20.93-26.7-66.27-41.608-99-56a796.051,796.051,0,0,0-157-51c-139.549-29.76-322.205.361-415,53-169.38,96.083-288.877,210.75-352,413-25.352,81.23-46.169,207.91-24,311,12.537,58.3,27.087,116.62,50,166q18.5,35.49,37,71H76q-18.5-45-37-90c-18.817-48.13-26.439-104.09-37-159q-1-39-2-78c-0.013-87.57,6.142-159.02,26-225,72.336-240.33,202.362-409.839,409-515,50.742-25.823,105.827-48.27,167-64,39.343-10.116,75.54-12.589,119-20,29.986-5.114,69.858-13.071,106-7l124,15c60.17,12.513,119.42,29.606,171,52l103,54c13.26,8.258,26.11,26.232,45,27q76.485-97.491,153-195-13.005-40-26-80c-27.17-77.472-56.09-149.167-85-222q-29.49-76.992-59-154c-38.35,18.463-71.33,38.542-121,46-27.51,4.13-55.65-7.72-77-13-55.673-13.764-153.184-18.823-99-93,6.107-8.36,11.681-16.958,20-23,39.87-28.958,102.2-17.434,168-23l158-1c56.19-8.144,144.8-5.119,195,4,50.62,9.195,120.74,7.069,106,74-34.57,24.646-199.87,28.222-264,20v1q7.995,23.5,16,47,11.505,5.5,23,11c13.73,10.946,25.76,39.295,33,56,40.74,93.956,68.66,197.968,116,286l305-72,546-132,200-49c12.87-3.557,66.5-12.384,71-20-25.97-60.879-47.35-122.3-72-182-7.63-18.485-20.97-51.546-7-73,18.85-28.943,81.66-23,129-23,112.27,0,284.86-11.563,352,33,53.64,35.606,109.12,135.4,71,224C3094.46,323.021,3009.14,386.366,2918,386Zm-247,7L1832,595l-198,47c-22.66,5.74-63.41,4.714-66,30q126.48,332.466,253,665c48.57,0.21,96.9,12.3,133,27q377.46-454.455,755-909C2704.63,441.329,2683.17,395.269,2671,393ZM1606,1497c21.53,0.33,41.92,6.25,62,1,1.89-31.26,38.61-86.62,56-106q-124.485-328.47-249-657c-1.33,1-2.67,2-4,3q-59.49,73.493-119,147c34.89,16.522,77.99,83.5,101,116C1543.56,1128.92,1606.09,1276.95,1606,1497Zm-129-14c3.08-176.61-53.81-299.17-126-401-24.43-34.46-47.16-73.11-82-97-3.34,11.3-15.32,19.43-22,28q-28.5,34.995-57,70-93.99,116.985-188,234c-20.755,27.48-42.894,53.3-63,82-5.781,8.25-20.258,18.38-14,32,15.5,4.23,35.788,2.91,54,6q82.995,7.995,166,16ZM734,1816c2.066,1.96,1.035.37,2,4-1,.67-2,1.33-3,2h-1v-1C732.667,1819.33,733.333,1817.67,734,1816Z"/>
</svg>
