<svg xmlns="http://www.w3.org/2000/svg" width="370" height="133" viewBox="0 0 370 133">
  <defs>
    <style>
      .cls-1, .cls-2 {
        fill: lime;
      }

      .cls-1 {
        fill-rule: evenodd;
      }
    </style>
  </defs>
  <path id="_1-2_BIKE" data-name="1-2 BIKE" class="cls-1" d="M115.33,91.919v-50.4H103.81l-13.32,5.76,3.6,8.28,8.28-2.88v39.24h12.96Zm32.4-20.16V61.679H118.21v10.08h29.52Zm36.719-15.84q0-7.56-3.42-10.98t-10.98-3.42h-23.04V51.6h20.16q4.32,0,4.32,4.32v3.6l-25.92,18.72v13.68h38.88V81.839h-24.12l15.48-11.16q1.872-1.367,3.456-2.736a13.558,13.558,0,0,0,5.184-10.584v-1.44Zm20.879,36h30.96q7.056,0,10.368-3.312t3.312-10.368a16.94,16.94,0,0,0-.72-5.184,11.156,11.156,0,0,0-7.92-7.776,10.086,10.086,0,0,0,4.608-3.78,12.071,12.071,0,0,0,1.872-7.02q0-6.551-3.312-9.756t-10.368-3.2h-28.8v50.4Zm31.68-14.4q0,4.32-4.32,4.32h-14.4V71.759h14.4q4.32,0,4.32,4.32v1.44Zm-2.16-20.16q0,4.32-4.32,4.32h-12.24V51.6h12.24q4.32,0,4.32,4.32v1.44Zm41.759,24.48h-6.48V51.6h6.48V41.519h-25.92V51.6h6.48v30.24h-6.48v10.08h25.92V81.839Zm15.84-10.44h6.48l11.16,20.52h13.68l-14.04-25.56,14.112-24.84h-13.68l-11.232,19.8h-6.48v-19.8h-12.96v50.4h12.96V71.4Zm72.072,10.44h-27V71.4h21.24V61.319h-21.24V51.6h27V41.519h-39.96v50.4h39.96V81.839Z"/>
  <path id="Kleurenvulling_1" data-name="Kleurenvulling 1" class="cls-1" d="M55,44A41.913,41.913,0,0,1,77.523,59.093C83.78,67.375,87.855,79.4,85,92c-3.818,16.843-18.952,29.515-36,31a39.617,39.617,0,0,1-33-13C3.555,95.835,2.735,73.116,15,58,24.339,46.491,39.769,41.225,55,44ZM45,49c-9.411.143-18.644,3.795-25,11-3.987,4.52-7,10.819-8,19a34.472,34.472,0,0,0,0,9,33.94,33.94,0,0,0,14,23,34.684,34.684,0,0,0,20,6c8.209,0,17.255-2.587,24-9,9.545-9.075,10.553-21.222,10-28a34.378,34.378,0,0,0-6-17,32.788,32.788,0,0,0-8-8A34.39,34.39,0,0,0,45,49Z"/>
  <path id="Kleurenvulling_2" data-name="Kleurenvulling 2" class="cls-1" d="M41,80a6.519,6.519,0,0,1,5-3,7.113,7.113,0,0,1,4,2,6.52,6.52,0,0,1,2,5,6.149,6.149,0,0,1-2,4,6.978,6.978,0,0,1-6,1,6.6,6.6,0,0,1-3-2,6.147,6.147,0,0,1-1-5A5.527,5.527,0,0,1,41,80Z"/>
  <path id="Kleurenvulling_3" data-name="Kleurenvulling 3" class="cls-1" d="M84,8l6,4L49,84l-2-2-3-2Z"/>
  <rect id="Kleurenvulling_4" data-name="Kleurenvulling 4" class="cls-2" x="84" y="8" width="21" height="6"/>
</svg>
