<?xml version="1.0" standalone="no"?>
<!DOCTYPE svg PUBLIC "-//W3C//DTD SVG 20010904//EN"
 "http://www.w3.org/TR/2001/REC-SVG-20010904/DTD/svg10.dtd">
<svg version="1.0" xmlns="http://www.w3.org/2000/svg"
 width="564.000000pt" height="564.000000pt" viewBox="0 0 564.000000 564.000000"
 preserveAspectRatio="xMidYMid meet">
<metadata>
Created by potrace 1.11, written by Peter Selinger 2001-2013
</metadata>
<g transform="translate(0.000000,564.000000) scale(0.100000,-0.100000)"
fill="#000000" stroke="none">
<path d="M4066 5162 c-2 -1 -21 -3 -44 -4 -49 -2 -46 1 -99 -98 -42 -77 -50
-93 -163 -295 -37 -66 -82 -147 -100 -180 -18 -33 -97 -175 -175 -315 -185
-333 -215 -387 -239 -435 -12 -22 -24 -42 -27 -45 -3 -3 -25 -41 -48 -85 -50
-94 -59 -105 -70 -87 -5 8 -11 13 -15 12 -4 -1 -41 12 -84 28 -71 28 -94 36
-114 41 -4 1 -22 7 -40 12 -36 11 -64 16 -153 27 -114 14 -456 4 -486 -14 -4
-2 -27 -6 -50 -9 -24 -3 -78 -15 -119 -26 -67 -19 -100 -30 -165 -55 -11 -4
-22 -8 -25 -9 -3 -1 -32 -15 -65 -30 -33 -16 -63 -28 -67 -27 -5 1 -8 -2 -8
-8 0 -5 -5 -10 -11 -10 -10 0 -126 -67 -139 -80 -3 -3 -27 -21 -55 -40 -67
-46 -106 -81 -190 -167 -85 -88 -115 -122 -115 -133 0 -5 -4 -10 -9 -12 -16
-6 -111 -156 -155 -245 -42 -86 -109 -267 -119 -328 -7 -39 -15 -72 -21 -93
-27 -90 -28 -480 -1 -606 1 -6 5 -24 9 -41 4 -16 12 -50 18 -75 39 -166 143
-389 250 -537 58 -81 181 -213 254 -273 60 -50 113 -90 118 -90 3 0 25 -13 49
-30 174 -117 443 -212 677 -237 111 -12 404 -4 430 12 3 2 26 6 50 10 25 3 59
10 75 15 339 101 555 226 775 449 118 120 211 247 281 381 47 90 104 225 113
271 3 13 10 40 16 59 6 19 13 51 16 70 3 19 7 37 9 41 8 13 19 162 19 259 0
194 -23 336 -81 509 -30 92 -151 343 -170 354 -7 4 -13 14 -13 20 0 7 -13 28
-30 47 -16 19 -29 39 -30 43 0 5 -6 14 -12 21 -7 8 -32 35 -54 62 -79 93 -164
173 -287 269 l-26 21 75 128 c40 71 74 131 74 133 0 2 10 20 23 41 13 20 37
62 54 92 17 30 53 95 81 143 28 49 54 97 57 108 4 10 11 19 16 19 5 0 9 4 9 9
0 5 61 116 136 247 75 132 148 259 162 284 14 25 33 59 43 75 10 17 30 53 44
80 38 71 50 86 72 86 10 -1 50 -1 88 0 39 0 77 0 85 0 108 -4 442 -1 450 4 6
3 7 11 4 17 -3 5 -6 57 -5 114 l2 105 -53 -1 c-29 0 -73 0 -98 1 -25 0 -49 0
-55 -1 -5 -1 -14 -2 -19 -1 -6 2 -66 2 -135 1 -70 -1 -137 -1 -151 0 -59 3
-242 5 -244 2z m-1586 -1641 c0 6 3 8 8 6 4 -3 52 -8 107 -12 88 -6 311 -53
354 -75 9 -4 26 -12 39 -16 22 -9 19 -15 -88 -207 -60 -109 -110 -200 -110
-203 0 -3 -8 -17 -19 -32 -10 -15 -45 -76 -78 -137 -34 -60 -73 -132 -89 -160
-61 -110 -85 -153 -120 -217 -20 -38 -42 -68 -48 -68 -24 0 -112 -48 -139 -76
-131 -132 -103 -317 59 -394 42 -19 60 -22 121 -17 93 7 143 34 186 101 28 45
32 59 32 121 0 44 -6 81 -16 101 -16 30 -15 31 42 130 54 95 85 149 125 224
11 19 22 37 25 40 3 3 9 12 12 20 4 8 19 35 33 60 14 25 37 65 51 90 13 25 34
61 45 80 12 19 34 60 51 90 16 30 36 62 43 71 8 8 14 18 14 22 0 7 108 196
122 214 21 26 235 -174 331 -309 59 -82 145 -246 172 -328 19 -60 45 -153 49
-181 3 -20 8 -42 10 -50 17 -48 24 -281 13 -403 -10 -102 -42 -251 -74 -341
-25 -70 -101 -236 -112 -245 -3 -3 -27 -36 -54 -75 -99 -146 -249 -280 -417
-372 -73 -40 -237 -107 -260 -106 -3 0 -16 -4 -30 -9 -147 -57 -522 -71 -720
-26 -25 5 -55 12 -67 14 -79 15 -290 109 -381 169 -30 19 -56 35 -58 35 -28 0
-314 299 -314 329 0 6 -3 11 -7 11 -8 0 -17 14 -74 117 -72 129 -137 335 -153
483 -5 45 -6 258 -2 290 2 14 7 45 11 70 4 25 8 57 10 71 2 14 11 55 20 90
108 427 356 726 745 897 53 23 204 72 240 77 14 2 49 9 79 14 29 6 92 13 139
16 48 3 88 8 90 10 2 2 15 0 28 -5 16 -6 24 -6 24 1z"/>
</g>
</svg>
