<svg xmlns="http://www.w3.org/2000/svg" width="5000" height="5000" viewBox="0 0 5000 5000">
  <defs>
    <style>
      .cls-1 {
        fill: #1e1f26;
        fill-rule: evenodd;
      }
    </style>
  </defs>
  <path id="Kleurenvulling_1" data-name="Kleurenvulling 1" class="cls-1" d="M2434,224c182.45-1.429,349.04,6.9,499,40,118.91,26.249,233.81,52.141,339,93,632.57,245.709,1084.58,670.95,1340,1293,52.68,128.31,91.03,267.04,124,417,14.04,63.88,17.51,130.72,29,198,12.66,74.13,10.99,154.7,11,237,0,51.19,2.4,103.61-5,150q-1.5,25.995-3,52-10.5,83.49-21,167c-35.8,179.09-75.52,342.16-139,492-275.11,649.36-769.54,1105.37-1475,1325-118.13,36.78-244.39,51.99-379,75-60.44,10.33-124.77,2.93-188,13h-82c-79.34.01-157.66-1.02-228-13-65.66-11.18-127.59-13.44-189-27-169.23-37.36-322.53-82.64-465-144C976.415,4322.56,527.672,3822.67,315,3139c-33.931-109.08-51.574-226.84-74-351-9.036-50.03-4.783-100.2-13-153-6.529-41.95-4-89.8-4-136,0-45.5-2.549-92.7,4-134,10.041-63.33,5.939-123.6,17-183,27.4-147.15,49.106-287.9,98-414,44.368-114.42,83.351-229.24,142-330,55.586-95.5,109.49-188.4,172-276,257.984-361.527,613.69-627.157,1060-801,142.15-55.37,296.87-84.85,465-116l166-17Zm22,178c-139.02-1.678-283.17,18.455-398,47-56.84,14.129-110.58,24.251-164,41-213.56,66.96-405.11,156.957-570,273-44.31,31.182-87.31,61.7-130,94q-39,33.5-78,67c-22.66,18.142-50.54,38.86-68,62q42,42.5,84,85,596.94,591.435,1194,1183c43.08-17.22,76.21-50.45,139-52-4.42-16.11-2-40.63-2-60V2012q-1.005-195.48-2-391Q2458.5,1011.565,2456,402Zm81,0q3.495,898.905,7,1798-9.495.495-19,1c73.62-.99,128.28,38.88,171,71q638.43-632.94,1277-1266c-1.33-1.67-2.67-3.33-4-5l-91-84c-66.77-53.52-133.08-107.078-204-157-70.67-49.747-148.19-86.31-225-131-58.49-34.035-124.08-58.787-190-85C3055.78,463.187,2816.05,402.454,2537,402ZM403,2419q904.905-3.495,1810-7c4.64-29.21,34.73-85.94,54-101q-54.495-54.99-109-110Q1574.065,1622.555,990,1044c-21.61,16.61-40.92,41.73-58,63q-33.5,38.49-67,77c-35.528,45.58-68.363,92.12-102,140C566.115,1604.24,424.581,1965.22,403,2419Zm2395,44q899.91-3.495,1800-7c1.65-136.53-19.04-285.54-47-398-16.73-67.28-30.19-130.33-50-193-67.33-213.04-164.54-402.8-281-568-37.55-53.26-78.8-103.41-119-154q-35.49-39.495-71-79l-107,107q-586.44,580.935-1173,1162C2771.53,2368.06,2795.3,2410.4,2798,2463Zm-311-85q-15,3.495-30,7c-34.2,13.35-62.73,41.83-74,78-25.67,82.38,44.91,173.31,130,159C2664.09,2596.59,2657.47,2376.14,2487,2378ZM402,2500c-5.29,456.06,143.143,831.05,318,1110,46.741,74.57,97.308,142.36,150,210,19.824,25.45,40.624,58.27,66,78q34-33.99,68-68L2225,2621c-16.6-35.66-24.85-75.29-25-128Q1301.1,2496.5,402,2500Zm2395,44c-2.65,55.54-32.19,99.85-56,136L4018,3948q3.495-3,7-6,40.995-45.99,82-92c51.16-64.54,104.38-129.29,149-200,103.24-163.6,190.03-339.75,254-544,20.04-64,31.88-128.95,48-198,25.92-111.01,39.85-238.6,40-371Q3697.6,2540.5,2797,2544ZM2463,4598q-3.495-898.9-7-1798,9.495-.495,19-1c-81.17,1.14-172.84-58.72-206-107l-8,8Q1626.56,3328.935,992,3958l9,9c8.31,16.91,57.65,58.82,74,72q27.495,25.5,55,51c49.87,39.68,98.44,79.53,151,117,175.01,124.75,371.64,227.11,600,299,66.55,20.95,133.96,34.21,206,51C2199.62,4583.25,2328.48,4597.72,2463,4598Zm81,0c150.02,1.81,302.3-21.76,425-53,294.23-74.9,529.29-179.76,744-332,63.37-44.93,121.08-95.89,181-144q33.495-31.5,67-63-57.99-58.5-116-117-580.44-575.445-1161-1151c-40.39,25.52-85.71,58.58-149,60,4.41,15.7,2,40.01,2,59v129q1.005,194.985,2,390Q2541.505,3986.935,2544,4598Z"/>
</svg>
